<svg width="20" height="17" viewBox="0 0 20 17" fill="none" xmlns="http://www.w3.org/2000/svg">
<g clip-path="url(#clip0_3262_39)">
<path d="M0.730993 4.50515H11.6959C12.1052 4.50515 12.4366 4.18068 12.4366 3.75789C12.4366 3.34494 12.1052 3.02048 11.6959 3.02048H0.730993C0.321637 3.02048 0 3.34494 0 3.75789C0 4.18068 0.321637 4.50515 0.730993 4.50515ZM0.730993 9.65726H18.8889C19.2982 9.65726 19.6393 9.323 19.6393 8.91C19.6393 8.497 19.2982 8.1726 18.8889 8.1726H0.730993C0.321637 8.1726 0 8.497 0 8.91C0 9.323 0.321637 9.65726 0.730993 9.65726ZM0.730993 14.7995H11.6959C12.1052 14.7995 12.4366 14.475 12.4366 14.0621C12.4366 13.6491 12.1052 13.3148 11.6959 13.3148H0.730993C0.321637 13.3148 0 13.6491 0 14.0621C0 14.475 0.321637 14.7995 0.730993 14.7995Z" fill="#555F62" fill-opacity="0.85"/>
</g>
<defs>
<clipPath id="clip0_3262_39">
<rect width="20" height="17" fill="white"/>
</clipPath>
</defs>
</svg>
